# xmcd CD database file
#
# Track frame offsets:
#	150
#	14442
#	31990
#	46107
#	60720
#	72727
#	86002
#	100795
#	113457
#	127132
#	137465
#	151075
#	163837
#
# Disc length: 2220 seconds
#
# Revision: 0
# Processed by: cddbd v1.5.2PL0 Copyright (c) Steve Scherf et al.
# Submitted via: CDex 1.51
#
DISCID=a708aa0d
DTITLE=Doris Day - Show Time
DYEAR=1960
DGENRE=Jazz
TTITLE0=Show Time
TTITLE1=I Got The Sun In The Morning
TTITLE2=Ohio
TTITLE3=I Love Paris
TTITLE4=When I'm Not Near The Boy I Love
TTITLE5=Peope Will Say We're In love
TTITLE6=I've Grown Accustomed To His Face
TTITLE7=The Surrey With The Fringe On Top
TTITLE8=They Say It's Wonderful
TTITLE9=A Wonderful Guy
TTITLE10=On The Street Where You Live
TTITLE11=The Sound Of Music
TTITLE12=Show Time
EXTD=YEAR: 1960
EXTT0=
EXTT1=
EXTT2=
EXTT3=
EXTT4=
EXTT5=
EXTT6=
EXTT7=
EXTT8=
EXTT9=
EXTT10=
EXTT11=
EXTT12=
PLAYORDER=
